<ttFont>
<head>
    <!-- Most of this table will be recalculated by the compiler -->
    <tableVersion value="1.0"/>
    <fontRevision value="10.1799926758"/>
    <checkSumAdjustment value="0xbea0537a"/>
    <magicNumber value="0x5f0f3cf5"/>
    <flags value="00000000 00001011"/>
    <unitsPerEm value="1000"/>
    <created value="Sat May 12 02:02:42 2012"/>
    <modified value="Sat May 12 02:03:12 2012"/>
    <xMin value="-96"/>
    <yMin value="-236"/>
    <xMax value="1025"/>
    <yMax value="764"/>
    <macStyle value="00000000 00000000"/>
    <lowestRecPPEM value="8"/>
    <fontDirectionHint value="2"/>
    <indexToLocFormat value="0"/>
    <glyphDataFormat value="0"/>
  </head>
          <CharString index="0">
            250 76 -250 hlineto
            return
          </CharString>
          <CharString index="1">
            0 44 11 35 23 25 23 25 31 12 40 0 40 0 32 -12 22 -25 22 -25 12 -35 0 -44 0 -45 -12 -34 -22 -25 -22 -25 -32 -12 -40 0 rrcurveto
            -40 0 -31 12 -23 25 rrcurveto
            -23 25 -11 34 0 45 rrcurveto
            return
          </CharString>
          <CharString index="2">
            0 108 20 81 41 55 41 55 60 27 80 0 80 0 60 -27 41 -55 41 -55 20 -81 0 -108 0 -107 -20 -82 -41 -55 -41 -55 -60 -27 -80 0 rrcurveto
            -80 0 -60 27 -41 55 -41 55 -20 82 0 107 rrcurveto
            return
          </CharString>
          <CharString index="3">
            14 -13 7 -19 0 -24 rrcurveto
            47 99 hlineto
            -21 8 -22 6 -22 4 rrcurveto
            return
          </CharString>
          <CharString index="4">
            -22 4 -21 2 -22 0 -58 0 -45 -15 -30 -30 -30 -30 -15 -43 0 -58 rrcurveto
            -65 -86 -52 86 -415 -86 vlineto
            return
          </CharString>
          <CharString index="5">
            95 31 hlineto
            0 42 6 34 11 28 11 28 18 24 25 21 rrcurveto
            -38 39 rlineto
            -44 -30 -33 -34 -20 -39 -20 -39 -11 -48 0 -57 rrcurveto
            return
          </CharString>
          <CharString index="6">
            38 -39 rlineto
            45 30 32 34 21 39 21 39 10 49 0 56 rrcurveto
            -95 -30 hlineto
            0 -42 -6 -35 -11 -28 -11 -28 -19 -24 -25 -21 rrcurveto
            return
          </CharString>
          <CharString index="7">
            0 -18 7 -15 12 -13 12 -13 15 -6 19 0 18 0 15 6 13 13 13 13 6 15 0 18 0 18 -6 15 -13 13 -13 13 -15 6 -18 0 rrcurveto
            -18 0 -15 -6 -13 -13 -13 -13 -6 -15 0 -18 rrcurveto
            return
          </CharString>
          <CharString index="8">
            20 -14 10 -21 1 -28 rrcurveto
            46 106 hlineto
            -29 9 -29 6 -30 4 rrcurveto
            return
          </CharString>
        <CharString name=".notdef">
          1313 endchar
        </CharString>
        <CharString name="A">
          -13 0 52 160 52 465 -20 hstem
          -6 hmoveto
          205 52 -80 hlineto
          61 160 307 0 61 -160 -81 0 0 -52 265 0 0 52 -72 0 -260 677 -82 0 -260 -677 -64 0 rlineto
          206 212 rmoveto
          134 347 134 -347 rlineto
          endchar
        </CharString>
        <CharString name="B">
          -1 0 52 317 52 256 52 hstemhm
          148 99 278 112 -75 112 hintmask 11110100
          55 hmoveto
          337 hlineto
          97 0 70 17 46 34 46 34 23 54 0 72 0 53 -16 43 -32 32 -32 32 -47 19 -62 8 50 6 37 15 26 26 rrcurveto
          hintmask 11111000
          26 26 13 35 0 43 0 60 -19 45 -37 30 -37 30 -55 15 -74 0 rrcurveto
          -360 -52 93 -625 -93 hlineto
          192 hmoveto
          317 146 vlineto
          59 0 43 -13 27 -25 rrcurveto
          hintmask 11110100
          27 -25 13 -40 0 -55 0 -55 -14 -41 -27 -25 -27 -25 -42 -13 -59 0 rrcurveto
          -146 369 rmoveto
          256 124 vlineto
          53 0 39 -11 25 -20 rrcurveto
          hintmask 11111000
          25 -20 12 -32 0 -45 0 -44 -12 -32 -25 -21 -25 -21 -39 -10 -53 0 rrcurveto
          endchar
        </CharString>
        <CharString name="C">
          30 -14 52 652 52 hstemhm
          56 112 447 90 -75 55 hintmask 11110000
          56 364 rmoveto
          0 -59 9 -53 18 -46 18 -46 27 -42 36 -36 32 -32 35 -24 41 -16 41 -16 44 -8 48 0 77 0 64 17 51 35 51 35 36 52 21 68 rrcurveto
          -90 hlineto
          -16 -51 -25 -39 -35 -26 -35 -26 -45 -13 -54 0 -78 0 -59 28 -40 55 -40 55 -20 81 0 107 0 107 20 81 40 55 40 55 59 28 78 0 rrcurveto
          65 0 51 -15 36 -29 rrcurveto
          hintmask 11101000
          36 -29 25 -45 12 -61 rrcurveto
          55 168 hlineto
          -52 21 -48 17 -45 10 -45 10 -42 5 -40 0 -107 0 -87 -35 -65 -69 rrcurveto
          -65 -69 -33 -92 0 -113 rrcurveto
          endchar
        </CharString>
        <CharString name="D">
          66 0 52 625 52 hstem
          148 99 385 112 vstem
          55 hmoveto
          290 hlineto
          125 0 99 33 70 64 70 64 35 89 0 115 0 114 -35 90 -70 64 -70 64 -98 32 -126 0 rrcurveto
          -290 -52 93 -625 -93 hlineto
          192 hmoveto
          625 91 vlineto
          95 0 73 -27 50 -53 50 -53 26 -78 0 -101 0 -101 -25 -77 -51 -54 -51 -54 -72 -27 -95 0 rrcurveto
          endchar
        </CharString>
        <CharString name="E">
          -6 0 60 -60 52 313 60 244 60 -52 52 hstemhm
          148 99 239 60 36 60 -52 60 hintmask 0110011010000000
          55 hmoveto
          595 162 -60 hlineto
          hintmask 1011011010000000
          -102 -343 305 239 -91 60 242 -60 -91 -239 244 vlineto
          hintmask 0011011100000000
          335 -102 60 hlineto
          hintmask 0110111100000000
          162 -587 -52 93 -625 -93 vlineto
          endchar
        </CharString>
        <CharString name="F">
          -42 0 52 313 60 244 60 -52 52 hstemhm
          148 99 249 60 36 60 hintmask 11101110
          55 hmoveto
          309 52 -117 313 249 -91 60 242 -60 -91 -249 244 345 -102 60 hlineto
          hintmask 11011110
          162 -597 -52 93 -625 -93 vlineto
          endchar
        </CharString>
        <CharString name="G">
          63 -14 52 243 52 357 52 hstemhm
          56 112 453 99 -80 55 hintmask 11111000
          56 364 rmoveto
          0 -114 34 -92 66 -69 66 -69 88 -34 110 0 57 0 53 6 50 13 50 13 47 18 43 25 rrcurveto
          272 -236 -52 137 -188 vlineto
          -30 -18 -32 -14 -34 -9 -34 -9 -34 -5 -37 0 -83 0 -62 28 -43 55 -43 55 -21 81 0 107 0 109 21 82 41 54 41 54 63 27 84 0 rrcurveto
          64 0 51 -15 36 -29 rrcurveto
          hintmask 11110100
          36 -29 24 -45 11 -61 rrcurveto
          55 173 hlineto
          -50 20 -48 14 -44 10 -44 10 -43 4 -42 0 -112 0 -90 -34 -66 -69 rrcurveto
          -66 -69 -34 -91 0 -115 rrcurveto
          endchar
        </CharString>
        <CharString name="H">
          137 0 52 313 60 252 52 hstem
          148 99 378 99 vstem
          55 hmoveto
          285 52 -93 313 378 -313 -93 -52 285 52 -93 625 93 52 -285 hlineto
          -52 93 -252 -378 252 93 52 -285 -52 93 -625 -93 vlineto
          endchar
        </CharString>
        <CharString name="I">
          -340 0 52 625 52 hstem
          148 99 vstem
          55 hmoveto
          285 52 -93 625 93 52 -285 -52 93 -625 -93 hlineto
          endchar
        </CharString>
        <CharString name="J">
          -335 -208 52 -19 115 737 52 hstemhm
          -84 56 191 99 hintmask 01111000
          -84 -60 rmoveto
          -115 vlineto
          24 -11 24 -8 24 -6 rrcurveto
          hintmask 10111000
          24 -6 23 -2 23 0 72 0 52 18 32 36 32 36 16 58 0 80 rrcurveto
          657 93 52 -305 -52 113 -653 vlineto
          0 -71 -8 -48 -15 -24 -15 -24 -27 -13 -39 0 -29 0 -21 8 -14 16 rrcurveto
          hintmask 01111000
          -14 16 -8 24 -1 32 rrcurveto
          endchar
        </CharString>
        <CharString name="K">
          12 0 52 625 52 hstem
          148 99 vstem
          55 hmoveto
          285 52 -93 294 hlineto
          346 -346 169 0 0 52 -83 0 -350 350 313 275 82 0 0 52 -242 0 0 -52 79 0 -314 -276 0 276 93 0 0 52 rlineto
          -285 -52 93 -625 -93 hlineto
          endchar
        </CharString>
        <CharString name="L">
          -71 0 60 -60 52 625 52 hstemhm
          148 99 333 60 hintmask 01111000
          55 hmoveto
          585 182 -60 hlineto
          hintmask 10111000
          -122 -333 617 93 52 -285 -52 93 vlineto
          hintmask 01111000
          -625 -93 vlineto
          endchar
        </CharString>
        <CharString name="M">
          288 0 52 625 52 hstem
          148 60 569 99 vstem
          50 677 rmoveto
          98 -625 -93 -52 246 52 -93 563 hlineto
          250 -508 69 0 250 508 0 -563 -93 0 0 -52 285 0 0 52 -93 0 0 625 97 0 0 52 -199 0 -256 -519 -256 519 rlineto
          -212 hlineto
          endchar
        </CharString>
        <CharString name="N">
          140 7 -21 14 52 625 52 hstemhm
          147 60 466 60 hintmask 01111000
          49 hmoveto
          256 52 -98 548 hlineto
          hintmask 10111000
          467 -614 59 0 0 691 98 0 0 52 -256 0 0 -52 98 0 0 -523 -437 575 -187 0 0 -52 98 0 rlineto
          hintmask 01111000
          -625 -98 vlineto
          endchar
        </CharString>
        <CharString name="O">
          84 -14 52 652 52 hstem
          56 112 484 112 vstem
          56 364 rmoveto
          0 -59 9 -53 18 -46 18 -46 27 -42 36 -36 32 -32 36 -24 42 -16 42 -16 45 -8 49 0 50 0 45 8 41 16 41 16 37 24 32 32 rrcurveto
          36 36 27 41 18 47 18 47 9 53 0 58 0 114 -32 91 -65 69 -65 69 -86 35 -106 0 -50 0 -46 -8 -41 -16 -41 -16 -36 -24 -32 -32 rrcurveto
          -36 -36 -27 -42 -18 -46 -18 -46 -9 -53 0 -59 rrcurveto
          112 hmoveto
          -105 callsubr
          endchar
        </CharString>
        <CharString name="P">
          -63 0 52 267 52 306 52 hstem
          148 99 278 112 vstem
          55 hmoveto
          305 52 -113 267 153 hlineto
          73 0 57 19 43 37 43 37 21 50 0 62 0 63 -21 50 -43 37 -43 37 -57 18 -73 0 rrcurveto
          -345 -52 93 -625 -93 hlineto
          192 319 rmoveto
          306 129 vlineto
          49 0 37 -13 25 -26 25 -26 13 -38 0 -50 0 -49 -13 -39 -25 -26 -25 -26 -37 -13 -49 0 rrcurveto
          endchar
        </CharString>
        <CharString name="Q">
          84 -160 90 56 52 652 52 hstem
          56 112 484 112 vstem
          56 364 rmoveto
          0 -115 33 -91 66 -69 66 -69 89 -34 112 0 25 -46 32 -36 39 -24 39 -24 47 -13 55 -3 rrcurveto
          90 -15 vlineto
          -35 0 -31 6 -25 10 -25 10 -21 16 -18 22 86 19 67 42 49 66 49 66 24 81 0 96 0 114 -32 91 -65 69 -65 69 -86 35 -106 0 rrcurveto
          -50 0 -46 -8 -41 -16 -41 -16 -36 -24 -32 -32 -36 -36 -27 -42 -18 -46 -18 -46 -9 -53 0 -59 rrcurveto
          112 hmoveto
          -105 callsubr
          endchar
        </CharString>
        <CharString name="R">
          17 0 52 287 52 286 52 hstem
          148 99 288 112 vstem
          55 hmoveto
          295 52 -103 287 109 hlineto
          32 0 25 -7 18 -13 18 -13 20 -29 22 -45 rrcurveto
          114 -232 172 0 0 52 -89 0 -106 216 rlineto
          -13 27 -15 20 -16 15 -16 15 -20 11 -23 6 56 7 42 18 28 29 28 29 14 39 0 50 0 62 -19 48 -39 34 -39 34 -54 17 -71 0 rrcurveto
          -370 -52 93 -625 -93 hlineto
          192 339 rmoveto
          286 144 vlineto
          49 0 37 -12 23 -23 23 -23 12 -36 0 -49 0 -49 -12 -36 -23 -23 -23 -23 -37 -12 -49 0 rrcurveto
          endchar
        </CharString>
        <CharString name="S">
          -50 -14 52 652 52 hstemhm
          84 95 -86 56 365 98 -92 55 hintmask 11101000
          84 547 rmoveto
          0 -55 15 -43 28 -32 28 -32 49 -26 70 -21 rrcurveto
          96 -29 rlineto
          59 -18 40 -18 18 -19 18 -19 9 -27 0 -35 0 -44 -15 -33 -30 -23 -30 -23 -45 -12 -58 0 -62 0 -47 13 -30 27 rrcurveto
          hintmask 11011000
          -30 27 -16 41 -2 55 rrcurveto
          -56 -166 hlineto
          43 -17 41 -12 42 -8 42 -8 41 -4 40 0 90 0 67 18 45 36 45 36 23 52 0 71 0 52 -14 41 -28 31 -28 31 -48 25 -66 20 rrcurveto
          -90 27 rlineto
          -65 20 -44 19 -20 20 rrcurveto
          hintmask 11100100
          -20 20 -10 27 0 35 0 40 13 30 27 21 27 21 40 11 51 0 59 0 44 -11 29 -23 29 -23 16 -38 6 -51 rrcurveto
          55 155 hlineto
          -46 14 -43 11 -40 7 -40 7 -37 4 -34 0 -79 0 -62 -17 -44 -34 rrcurveto
          -44 -34 -22 -48 0 -62 rrcurveto
          endchar
        </CharString>
        <CharString name="T">
          -69 0 52 505 172 -58 58 hstemhm
          10 60 214 99 214 60 cntrmask 00011100
          hintmask 11011100
          10 557 rmoveto
          60 hlineto
          hintmask 10111100
          114 214 -619 -93 -52 285 52 -93 619 214 vlineto
          hintmask 11011100
          -114 60 172 -647 vlineto
          endchar
        </CharString>
        <CharString name="U">
          107 -14 64 627 52 hstem
          140 99 406 60 vstem
          47 677 rmoveto
          93 -387 hlineto
          0 -110 22 -79 43 -46 43 -46 74 -23 102 0 102 0 72 23 43 46 43 46 21 78 0 111 rrcurveto
          387 93 52 -246 -52 93 -377 vlineto
          0 -93 -16 -65 -30 -37 -30 -37 -52 -18 -75 0 -75 0 -53 18 -30 37 -30 37 -15 65 0 93 rrcurveto
          377 93 52 -285 vlineto
          endchar
        </CharString>
        <CharString name="V">
          -13 21 -21 677 52 hstem
          -10 677 rmoveto
          73 0 259 -677 84 0 260 677 71 0 0 52 -214 0 0 -52 82 0 -215 -560 -215 560 81 0 0 52 -266 0 rlineto
          endchar
        </CharString>
        <CharString name="W">
          292 21 -21 677 52 hstem
          5 677 rmoveto
          72 0 191 -677 80 0 167 593 167 -593 80 0 191 677 72 0 0 52 -210 0 0 -52 84 0 -153 -545 -169 597 -79 0 rlineto
          -166 -591 -152 539 91 0 0 52 -266 0 rlineto
          endchar
        </CharString>
        <CharString name="X">
          -24 0 52 625 52 hstem
          6 hmoveto
          241 52 -94 hlineto
          178 260 174 -260 -87 0 0 -52 289 0 0 52 -78 0 -230 344 193 281 82 0 0 52 -239 0 0 -52 94 0 -161 -235 rlineto
          -156 235 86 0 0 52 -289 0 0 -52 78 0 213 -319 -210 -306 -84 0 rlineto
          endchar
        </CharString>
        <CharString name="Y">
          -75 0 52 625 52 hstem
          282 99 vstem
          -11 677 rmoveto
          68 0 225 -363 0 -262 -93 0 0 -52 285 0 0 52 -93 0 0 271 219 354 69 0 0 52 -212 0 0 -52 82 0 rlineto
          -182 -295 -182 295 85 0 0 52 -271 0 rlineto
          endchar
        </CharString>
        <CharString name="Z">
          -41 0 60 609 60 hstem
          62 60 474 60 vstem
          45 hmoveto
          611 162 -60 -102 -412 hlineto
          454 634 0 35 -576 0 0 -169 60 0 0 109 377 0 -454 -634 rlineto
          endchar
        </CharString>
        <CharString name="a">
          -139 -14 52 -38 52 221 52 63 105 -8 48 hstemhm
          50 100 -60 46 262 90 hintmask 10100101
          50 156 rmoveto
          0 -52 17 -41 34 -31 34 -31 45 -15 58 0 35 0 30 6 26 11 26 11 23 18 20 24 rrcurveto
          hintmask 01101011
          -56 170 52 -80 272 vlineto
          0 68 -19 52 -38 36 -38 36 -54 17 -72 0 -28 0 -29 -3 -29 -7 rrcurveto
          hintmask 00110011
          -29 -7 -31 -10 -31 -13 rrcurveto
          -105 46 vlineto
          5 32 14 24 21 16 rrcurveto
          hintmask 10101101
          21 16 28 9 36 0 43 0 34 -11 24 -22 24 -22 12 -30 0 -39 rrcurveto
          -36 -126 vlineto
          -71 0 -54 -14 -39 -30 rrcurveto
          -39 -30 -19 -41 0 -54 rrcurveto
          100 hmoveto
          0 40 11 29 22 19 22 19 32 10 45 0 rrcurveto
          116 -110 hlineto
          0 -37 -11 -30 -23 -23 -23 -23 -31 -12 -37 0 -38 0 -30 11 -22 21 -22 21 -11 29 0 36 rrcurveto
          endchar
        </CharString>
        <CharString name="at">
          265 -174 51 165 57 326 57 171 51 hstem
          66 83 145 87 251 76 175 46 vstem
          66 265 rmoveto
          0 -62 10 -57 22 -53 22 -53 32 -48 42 -41 41 -40 47 -30 54 -22 54 -22 57 -11 60 0 53 0 48 8 45 15 45 15 40 23 35 30 rrcurveto
          -26 34 rlineto
          -31 -25 -34 -18 -36 -12 -36 -12 -40 -7 -42 0 -56 0 -53 10 -49 20 -49 20 -42 30 -35 39 -31 34 -24 39 -16 46 -16 46 -8 50 0 54 rrcurveto
          0 80 19 72 36 61 36 61 51 46 66 30 28 13 28 10 29 6 29 6 29 3 29 0 58 0 54 -12 50 -23 50 -23 41 -33 35 -43 rrcurveto
          22 -27 16 -30 11 -32 11 -32 6 -35 0 -36 0 -61 -15 -51 -31 -41 -31 -41 -43 -26 -55 -12 rrcurveto
          377 -76 -69 vlineto
          -19 27 -22 19 -24 13 -24 13 -27 7 -30 0 -57 0 -47 -20 -35 -41 -35 -41 -18 -53 0 -65 0 -65 18 -53 35 -41 35 -41 47 -20 57 0 rrcurveto
          30 0 27 7 24 13 24 13 22 19 19 27 rrcurveto
          -79 vlineto
          92 1 73 25 53 51 53 51 26 69 0 87 0 40 -6 40 -13 37 -13 37 -18 35 -25 32 -39 51 -48 39 -57 27 -57 27 -64 13 -70 0 rrcurveto
          -63 0 -60 -11 -56 -22 -56 -22 -49 -32 -41 -41 -42 -41 -31 -47 -22 -53 -22 -53 -11 -57 0 -60 rrcurveto
          315 -3 rmoveto
          0 51 11 41 22 28 22 28 31 15 39 0 37 0 31 -13 23 -25 23 -25 12 -33 0 -41 rrcurveto
          -51 vlineto
          0 -41 -12 -33 -23 -26 -23 -26 -30 -12 -37 0 -40 0 -31 15 -22 28 -22 28 -11 40 0 52 rrcurveto
          endchar
        </CharString>
        <CharString name="b">
          -95 -14 56 -42 52 425 56 175 52 hstemhm
          29 176 -90 90 280 105 hintmask 01111010
          29 hmoveto
          176 hlineto
          hintmask 10110110
          81 vlineto
          18 -33 22 -24 27 -15 27 -15 34 -8 40 0 64 0 52 25 40 51 40 51 21 66 0 81 0 81 -21 67 -40 50 -40 50 -52 25 -64 0 rrcurveto
          -40 0 -34 -8 -27 -15 -27 -15 -22 -24 -18 -33 rrcurveto
          hintmask 01111010
          322 -176 -52 vlineto
          hintmask 01110110
          86 -656 hlineto
          hintmask 01111010
          -86 hlineto
          hintmask 10110110
          176 182 rmoveto
          51 vlineto
          0 62 12 48 24 33 24 33 34 16 46 0 46 0 34 -19 24 -36 24 -36 12 -54 0 -72 0 -72 -12 -54 -24 -37 -24 -37 -34 -18 -46 0 rrcurveto
          -46 0 -34 16 -24 33 rrcurveto
          -24 33 -12 48 0 62 rrcurveto
          endchar
        </CharString>
        <CharString name="backslash">
          -399 729 -20 hstem
          729 vmoveto
          259 -822 78 0 -259 822 rlineto
          endchar
        </CharString>
        <CharString name="bar">
          -399 129 79 vstem
          129 -236 rmoveto
          79 1000 -79 hlineto
          endchar
        </CharString>
        <CharString name="bullet">
          -146 227 289 hstem
          150 290 vstem
          150 372 rmoveto
          0 -41 14 -34 28 -28 28 -28 34 -14 41 0 41 0 34 14 28 28 28 28 14 34 0 41 0 40 -14 34 -28 28 -28 28 -34 14 -40 0 rrcurveto
          -41 0 -35 -14 -28 -28 -28 -28 -14 -34 0 -40 rrcurveto
          endchar
        </CharString>
        <CharString name="c">
          -175 -14 48 451 48 hstemhm
          50 105 287 72 -69 52 hintmask 11110000
          50 260 rmoveto
          0 -83 23 -66 46 -50 46 -50 60 -25 76 0 57 0 47 14 36 29 36 29 24 43 13 55 rrcurveto
          -72 hlineto
          -8 -41 -16 -31 -23 -20 -23 -20 -31 -10 -39 0 -49 0 -36 19 -25 38 -25 38 -12 56 0 75 0 75 12 55 25 38 25 38 36 19 49 0 rrcurveto
          43 0 32 -10 23 -21 rrcurveto
          hintmask 11101000
          23 -21 15 -33 7 -46 rrcurveto
          52 133 hlineto
          -33 16 -32 11 -33 8 -33 8 -32 3 -33 0 -76 0 -60 -24 -46 -50 rrcurveto
          -46 -50 -23 -66 0 -83 rrcurveto
          endchar
        </CharString>
        <CharString name="colon">
          -399 -14 130 188 130 hstem
          104 130 vstem
          104 51 rmoveto
          0 -18 7 -15 12 -13 12 -13 15 -6 19 0 19 0 15 6 12 13 12 13 7 15 0 18 0 18 -6 15 -13 13 -13 13 -15 6 -18 0 rrcurveto
          -18 0 -15 -6 -13 -13 -13 -13 -6 -15 0 -18 rrcurveto
          318 vmoveto
          0 -18 6 -15 13 -13 13 -13 15 -6 18 0 19 0 15 7 12 12 12 12 7 15 0 19 0 19 -7 16 -12 12 -12 12 -15 6 -19 0 rrcurveto
          -18 0 -15 -6 -13 -13 -13 -13 -6 -15 0 -18 rrcurveto
          endchar
        </CharString>
        <CharString name="comma">
          -418 -136 247 hstem
          125 96 vstem
          36 -97 rmoveto
          39 -39 rlineto
          48 29 35 35 24 40 24 40 12 47 3 56 rrcurveto
          -96 -18 hlineto
          0 -43 -7 -38 -14 -30 -14 -30 -23 -27 -31 -22 rrcurveto
          endchar
        </CharString>
        <CharString name="copyright">
          265 0 50 97 38 252 104 -1 38 97 50 hstemhm
          138 50 113 84 232 41 154 50 hintmask 1100111110000000
          138 362 rmoveto
          0 -49 9 -47 18 -42 18 -42 26 -40 35 -35 35 -35 40 -27 43 -18 43 -18 46 -9 49 0 49 0 46 9 43 18 43 18 40 27 35 35 rrcurveto
          35 35 26 40 18 42 18 42 9 47 0 49 0 50 -9 46 -18 43 -18 43 -26 39 -35 35 -35 35 -40 27 -43 18 -43 18 -46 9 -49 0 rrcurveto
          -49 0 -46 -9 -43 -18 -43 -18 -40 -27 -35 -35 -35 -35 -26 -39 -18 -43 rrcurveto
          -18 -43 -9 -46 0 -50 rrcurveto
          50 hmoveto
          0 43 8 40 15 37 15 37 24 34 30 30 31 31 33 23 37 15 37 15 39 8 43 0 43 0 40 -8 37 -15 37 -15 33 -23 31 -31 rrcurveto
          30 -30 23 -34 15 -37 15 -37 8 -40 0 -43 0 -43 -8 -39 -15 -37 -15 -37 -23 -34 -30 -30 -31 -31 -33 -23 -37 -15 -37 -15 -40 -8 -43 0 rrcurveto
          -43 0 -39 8 -37 15 -37 15 -33 23 -31 31 -30 31 -24 33 -15 37 -15 37 -8 40 0 42 rrcurveto
          113 hmoveto
          0 -65 18 -52 36 -39 36 -39 49 -20 61 0 46 0 39 11 29 23 29 23 19 33 9 43 rrcurveto
          -58 hlineto
          -7 -32 -13 -25 -18 -15 -18 -15 -25 -8 -32 0 -38 0 -29 15 -20 29 -20 29 -9 45 0 59 0 59 9 44 20 30 rrcurveto
          hintmask 1101111110000000
          20 30 29 15 39 0 34 0 26 -8 19 -17 rrcurveto
          hintmask 1110111110000000
          19 -17 11 -26 6 -35 rrcurveto
          41 104 hlineto
          -28 13 -27 9 -25 6 rrcurveto
          hintmask 1101111110000000
          -25 6 -26 3 -26 0 -60 0 -48 -20 -37 -39 -37 -39 -18 -53 0 -65 rrcurveto
          endchar
        </CharString>
        <CharString name="d">
          -95 -14 56 -42 52 425 56 175 52 hstemhm
          50 105 280 90 hintmask 10111100
          50 260 rmoveto
          0 -81 20 -66 41 -51 41 -51 51 -25 64 0 40 0 34 8 27 15 27 15 22 24 18 33 rrcurveto
          hintmask 01111100
          -81 176 52 -86 708 -175 -52 85 -270 vlineto
          -18 33 -22 24 -27 15 -27 15 -34 8 -40 0 -64 0 -53 -25 -40 -50 rrcurveto
          -40 -50 -20 -67 0 -81 rrcurveto
          105 hmoveto
          0 72 11 54 24 36 24 36 35 19 46 0 46 0 34 -16 24 -33 24 -33 12 -48 0 -62 rrcurveto
          -51 vlineto
          0 -62 -12 -48 -24 -33 rrcurveto
          hintmask 10111100
          -24 -33 -34 -16 -46 0 -46 0 -35 18 -24 37 -24 37 -11 54 0 72 rrcurveto
          endchar
        </CharString>
        <CharString name="dollar">
          -15 48 547 49 131 -20 hstemhm
          85 97 -96 53 149 49 113 103 -85 53 hintmask 11110100
          85 450 rmoveto
          0 -45 15 -36 30 -27 30 -27 53 -24 75 -21 rrcurveto
          -237 vlineto
          -49 1 -36 12 -25 23 rrcurveto
          hintmask 11101110
          -25 23 -13 33 -1 45 rrcurveto
          -53 -135 hlineto
          36 -16 35 -13 34 -8 34 -8 32 -4 31 -1 rrcurveto
          -132 49 132 vlineto
          69 5 53 18 38 33 38 33 18 43 0 54 0 47 -16 38 -32 28 -32 28 -56 25 -80 22 rrcurveto
          221 vlineto
          38 -3 31 -13 22 -22 rrcurveto
          hintmask 11101101
          22 -22 14 -29 4 -38 rrcurveto
          53 128 hlineto
          -29 13 -30 11 -30 8 -30 8 -32 5 -33 3 rrcurveto
          131 -49 -131 vlineto
          -64 -4 -49 -17 -36 -32 rrcurveto
          -36 -32 -18 -42 0 -52 rrcurveto
          hintmask 11110100
          97 32 rmoveto
          0 29 9 23 19 17 19 17 25 10 34 2 rrcurveto
          -205 vlineto
          -36 11 -27 14 -17 17 rrcurveto
          -17 17 -9 22 0 26 rrcurveto
          155 -449 rmoveto
          221 vlineto
          37 -10 28 -15 19 -20 rrcurveto
          hintmask 11100110
          19 -20 10 -23 0 -28 0 -31 -10 -24 -19 -18 -19 -18 -28 -11 -37 -3 rrcurveto
          endchar
        </CharString>
        <CharString name="e">
          -144 -14 48 216 52 183 48 hstem
          50 105 281 106 vstem
          50 260 rmoveto
          0 -83 23 -66 46 -50 46 -50 61 -25 76 0 63 0 50 14 39 29 39 29 26 42 14 57 rrcurveto
          -72 hlineto
          -10 -41 -18 -30 -25 -21 -25 -21 -33 -10 -39 0 -51 0 -40 18 -26 36 -26 36 -13 52 0 70 rrcurveto
          4 387 vlineto
          -2 92 -21 71 -42 48 -42 48 -61 24 -78 0 -74 0 -59 -25 -45 -50 -45 -50 -23 -66 0 -82 rrcurveto
          105 42 rmoveto
          5 60 14 45 24 31 24 31 33 16 41 0 44 0 34 -15 24 -31 24 -31 12 -45 2 -61 rrcurveto
          endchar
        </CharString>
        <CharString name="eight">
          -14 48 330 48 282 48 hstemhm
          67 103 -79 99 256 99 -79 103 hintmask 11110010
          67 199 rmoveto
          0 -68 22 -53 43 -37 43 -37 63 -18 80 0 81 0 62 18 43 37 43 37 22 53 0 68 0 52 -16 43 -31 33 -31 33 -43 21 -55 7 rrcurveto
          49 9 38 19 26 28 rrcurveto
          hintmask 11101100
          26 28 13 37 0 44 0 59 -21 46 -40 34 -40 34 -55 16 -71 0 -71 0 -56 -16 -40 -34 -40 -34 -20 -46 0 -59 0 -44 13 -37 26 -28 rrcurveto
          26 -28 38 -19 49 -9 -56 -7 -43 -21 -31 -33 rrcurveto
          -31 -33 -15 -43 0 -52 rrcurveto
          hintmask 11110010
          103 hmoveto
          0 52 13 41 26 29 26 29 36 14 47 0 47 0 36 -14 26 -29 26 -29 13 -41 0 -52 0 -52 -13 -41 -26 -29 -26 -29 -36 -14 -47 0 rrcurveto
          -47 0 -36 14 -26 29 rrcurveto
          -26 29 -13 41 0 52 rrcurveto
          hintmask 11101100
          20 354 rmoveto
          -106 callsubr
          endchar
        </CharString>
        <CharString name="ellipsis">
          265 -14 130 hstem
          102 130 203 130 203 130 vstem
          cntrmask 01110000
          102 51 rmoveto
          -100 callsubr
          333 hmoveto
          -100 callsubr
          333 hmoveto
          -100 callsubr
          endchar
        </CharString>
        <CharString name="endash">
          -235 233 65 hstem
          44 233 rmoveto
          412 65 -412 hlineto
          endchar
        </CharString>
        <CharString name="equal">
          102 175 78 121 78 hstem
          106 175 rmoveto
          626 78 -626 hlineto
          121 vmoveto
          626 78 -626 hlineto
          endchar
        </CharString>
        <CharString name="f">
          -365 0 52 415 52 118 99 -24 48 hstemhm
          122 90 171 47 hintmask 11011100
          36 hmoveto
          291 52 -115 415 145 52 -145 67 hlineto
          0 47 6 33 14 18 14 18 23 10 34 0 26 0 19 -6 14 -13 rrcurveto
          hintmask 11101100
          -104 callsubr
          hintmask 11011100
          -103 callsubr
          endchar
        </CharString>
        <CharString name="fi">
          -69 0 52 415 52 109 106 -22 48 hstemhm
          122 90 257 90 -82 46 hintmask 11011100
          36 hmoveto
          261 52 -85 415 257 -415 -86 -52 261 52 -85 467 -347 49 hlineto
          0 50 12 36 23 23 23 23 36 12 50 0 40 0 30 -7 20 -14 rrcurveto
          hintmask 11101010
          -99 callsubr
          hintmask 11011100
          -30 4 -29 3 -28 0 -75 0 -56 -16 -38 -33 -38 -33 -19 -48 0 -64 rrcurveto
          -47 -86 -52 86 -415 -86 vlineto
          endchar
        </CharString>
        <CharString name="five">
          -14 48 393 48 174 80 hstemhm
          85 55 -23 52 287 103 hintmask 11110100
          85 35 rmoveto
          37 -17 36 -12 35 -8 35 -8 34 -4 34 0 83 0 65 22 46 43 46 43 23 60 0 77 0 76 -22 59 -46 44 -46 44 -62 21 -79 0 rrcurveto
          -28 0 -25 -3 -23 -6 rrcurveto
          hintmask 11101100
          -23 -6 -19 -8 -17 -12 rrcurveto
          209 334 80 -386 -366 42 vlineto
          17 22 21 16 22 10 22 10 26 6 29 0 52 0 39 -17 28 -34 28 -34 13 -48 0 -63 0 -63 -13 -49 -28 -34 -28 -34 -40 -17 -51 0 rrcurveto
          -48 0 -37 13 -27 24 rrcurveto
          hintmask 11110100
          -27 24 -14 36 -3 46 rrcurveto
          -55 hlineto
          endchar
        </CharString>
        <CharString name="fl">
          -69 0 52 415 52 189 52 hstem
          122 90 250 90 vstem
          36 hmoveto
          261 52 -85 415 144 52 -144 49 hlineto
          0 51 11 36 22 21 22 21 37 11 53 0 rrcurveto
          105 -656 -86 -52 261 52 -85 708 -194 hlineto
          -79 0 -60 -16 -39 -32 -39 -32 -19 -49 0 -65 rrcurveto
          -47 -86 -52 86 -415 -86 vlineto
          endchar
        </CharString>
        <CharString name="four">
          0 52 143 52 495 -20 hstem
          349 98 vstem
          31 195 rmoveto
          318 -143 -117 -52 332 52 -117 143 139 52 -139 495 -97 hlineto
          -319 -494 rlineto
          69 -1 rmoveto
          249 388 0 -388 rlineto
          endchar
        </CharString>
        <CharString name="g">
          -95 -222 48 165 85 79 48 264 52 -34 48 hstemhm
          53 96 -81 99 -64 64 256 99 -16 73 hintmask 1111010001000000
          53 -102 rmoveto
          0 -25 18 -26 35 -28 35 -28 64 -13 90 0 rrcurveto
          3 hlineto
          66 0 63 11 60 24 61 24 31 43 0 61 rrcurveto
          90 -95 45 -189 vhcurveto
          hintmask 1111000110000000
          -85 -43 9 20 hvcurveto
          0 21 9 22 19 21 29 -9 34 -5 37 0 71 0 55 17 40 34 40 34 21 46 0 58 0 50 -15 41 -29 32 rrcurveto
          133 52 -216 hlineto
          hintmask 1110101000000000
          -29 9 -34 5 -37 0 -71 0 -56 -17 -40 -34 -40 -34 -20 -46 0 -58 0 -58 20 -46 40 -34 10 -8 12 -7 12 -7 rrcurveto
          hintmask 1111000100000000
          -39 -36 -20 -32 0 -28 0 -26 9 -21 20 -15 rrcurveto
          -53 -38 -26 -42 0 -48 rrcurveto
          hintmask 1110010001000000
          96 31 rmoveto
          0 35 6 27 11 18 32 -12 43 -6 54 0 141 0 70 -16 0 -34 0 -31 -19 -27 -38 -23 -38 -23 -52 -11 -64 0 -46 0 -35 9 -26 21 rrcurveto
          -26 21 -13 24 0 28 rrcurveto
          hintmask 1110101010000000
          18 415 rmoveto
          -106 callsubr
          endchar
        </CharString>
        <CharString name="greater">
          102 106 46 rmoveto
          626 227 0 81 -626 227 0 -83 507 -185 -507 -184 rlineto
          endchar
        </CharString>
        <CharString name="h">
          -91 0 52 415 66 175 52 hstem
          122 90 234 90 vstem
          36 708 rmoveto
          86 -656 -81 -52 249 52 -78 237 hlineto
          0 58 11 44 22 30 22 30 31 16 42 0 40 0 28 -12 15 -23 15 -23 8 -44 0 -63 rrcurveto
          -250 -78 -52 248 52 -80 278 vlineto
          0 70 -13 51 -27 33 -27 33 -43 16 -57 0 -35 0 -30 -9 -27 -18 -27 -18 -21 -26 -17 -35 rrcurveto
          333 -176 vlineto
          endchar
        </CharString>
        <CharString name="hyphen">
          -398 230 76 hstem
          44 250 vstem
          44 230 rmoveto
          -107 callsubr
          endchar
        </CharString>
        <CharString name="i">
          -416 0 52 415 52 106 111 hstemhm
          97 111 -86 90 hintmask 11101000
          36 hmoveto
          261 52 -85 467 -176 -52 86 -415 -86 hlineto
          hintmask 11110000
          61 628 rmoveto
          0 -15 6 -13 11 -11 11 -11 13 -5 15 0 15 0 13 5 11 11 11 11 5 13 0 15 0 15 -5 13 -11 11 -11 11 -13 6 -15 0 rrcurveto
          -15 0 -13 -6 -11 -11 rrcurveto
          -11 -11 -6 -13 0 -15 rrcurveto
          endchar
        </CharString>
        <CharString name="j">
          -425 -222 48 -16 107 550 52 106 111 hstemhm
          -96 46 150 111 -89 90 hintmask 01111010
          -96 -83 rmoveto
          -107 vlineto
          20 -11 21 -8 21 -5 rrcurveto
          hintmask 10111010
          21 -5 23 -3 23 0 56 0 43 15 32 30 32 30 16 43 0 53 rrcurveto
          570 -175 -52 85 -518 vlineto
          0 -42 -7 -31 -14 -20 -14 -20 -22 -10 -30 0 -27 0 -20 7 -14 15 rrcurveto
          hintmask 01111010
          -14 15 -8 23 -2 31 rrcurveto
          hintmask 00111100
          150 763 rmoveto
          0 -15 5 -13 11 -11 11 -11 14 -5 15 0 16 0 12 5 11 11 11 11 5 13 0 15 0 15 -5 13 -11 11 -11 11 -13 6 -15 0 rrcurveto
          -15 0 -14 -6 -11 -11 rrcurveto
          -11 -11 -5 -13 0 -15 rrcurveto
          endchar
        </CharString>
        <CharString name="k">
          -130 0 52 415 52 189 52 hstem
          115 90 vstem
          29 708 rmoveto
          86 -656 -81 -52 252 52 -81 147 hlineto
          71 66 155 -213 -74 0 0 -52 256 0 0 52 -75 0 -197 272 154 143 89 0 0 52 -235 0 0 -52 75 0 -219 -202 rlineto
          495 -176 vlineto
          endchar
        </CharString>
        <CharString name="l">
          -416 0 52 656 52 hstem
          115 90 vstem
          29 hmoveto
          261 52 -85 708 -176 -52 86 -656 -86 hlineto
          endchar
        </CharString>
        <CharString name="less">
          102 106 273 rmoveto
          626 -227 0 83 -507 184 507 185 0 83 -626 -227 rlineto
          endchar
        </CharString>
        <CharString name="m">
          213 0 52 415 66 -65 51 hstemhm
          122 90 224 90 224 90 cntrmask 00011100
          hintmask 10111100
          36 468 rmoveto
          86 -416 -81 -52 249 52 -78 237 hlineto
          0 58 10 44 21 30 rrcurveto
          hintmask 11011100
          21 30 31 16 40 0 36 0 26 -11 16 -22 16 -22 7 -37 0 -52 rrcurveto
          -271 -78 -52 246 52 -78 237 vlineto
          0 58 10 44 21 30 21 30 31 16 40 0 36 0 26 -12 16 -22 16 -22 7 -38 0 -53 rrcurveto
          -268 -78 -52 249 52 -81 278 vlineto
          0 68 -13 51 -27 34 -27 34 -41 16 -54 0 -36 0 -31 -10 -27 -19 -27 -19 -22 -29 -17 -38 -9 37 -18 28 -27 20 -27 20 -34 10 -40 0 rrcurveto
          -33 0 -29 -9 -26 -18 -26 -18 -20 -26 -17 -35 rrcurveto
          hintmask 10111100
          92 -176 vlineto
          endchar
        </CharString>
        <CharString name="multiply">
          102 138 88 rmoveto
          56 -55 225 225 225 -225 56 55 -226 225 226 226 -56 55 -225 -225 -225 225 -56 -55 225 -226 rlineto
          endchar
        </CharString>
        <CharString name="n">
          -91 0 52 415 52 -51 65 hstemhm
          122 90 234 90 hintmask 11011000
          36 467 rmoveto
          86 -415 -81 -52 249 52 -78 237 hlineto
          0 58 11 45 22 30 rrcurveto
          hintmask 10111000
          22 30 31 16 42 0 39 0 27 -12 16 -24 16 -24 8 -43 0 -63 rrcurveto
          -250 -78 -52 248 52 -80 278 vlineto
          0 70 -13 51 -27 33 -27 33 -43 16 -57 0 -35 0 -30 -9 -27 -18 -27 -18 -21 -26 -17 -35 rrcurveto
          hintmask 11011000
          92 -176 vlineto
          endchar
        </CharString>
        <CharString name="nine">
          -14 48 -19 121 118 48 392 48 hstemhm
          63 103 -65 55 312 101 hintmask 10111010
          63 498 rmoveto
          0 -76 21 -59 42 -44 42 -44 57 -21 72 0 35 0 33 6 28 12 28 12 25 19 22 24 -1 -100 -16 -73 -31 -48 -31 -48 -47 -24 -63 0 rrcurveto
          -35 0 -29 9 -21 18 rrcurveto
          hintmask 01110110
          -21 18 -13 24 -4 33 rrcurveto
          -55 -121 hlineto
          30 -10 29 -7 28 -5 rrcurveto
          hintmask 10111010
          28 -5 27 -2 26 0 95 0 74 35 52 70 52 70 27 98 0 128 0 114 -22 88 -44 61 -44 61 -64 31 -82 0 -76 0 -61 -22 -45 -44 rrcurveto
          -45 -44 -23 -60 0 -74 rrcurveto
          103 hmoveto
          0 63 12 48 25 34 25 34 35 17 46 0 46 0 35 -17 25 -35 25 -35 12 -50 0 -65 0 -62 -12 -46 -25 -33 -25 -33 -35 -16 -46 0 rrcurveto
          -46 0 -35 17 -25 34 -25 34 -12 48 0 63 rrcurveto
          endchar
        </CharString>
        <CharString name="nonbreakingspace">
          -418 endchar
        </CharString>
        <CharString name="numbersign">
          102 21 -21 202 75 163 75 hstem
          77 202 rmoveto
          151 0 -50 -202 83 0 51 202 138 0 -51 -202 84 0 50 202 172 0 0 75 -153 0 40 163 169 0 0 75 -150 0 rlineto
          51 203 -84 0 -50 -203 -138 0 50 203 -83 0 -51 -203 -173 0 0 -75 154 0 -40 -163 -170 0 rlineto
          253 hmoveto
          41 163 138 0 -40 -163 rlineto
          endchar
        </CharString>
        <CharString name="o">
          -133 -14 48 451 48 hstem
          50 105 292 105 vstem
          50 260 rmoveto
          0 -83 23 -66 46 -50 46 -50 60 -25 76 0 76 0 60 25 46 50 46 50 23 66 0 83 0 83 -23 65 -46 50 -46 50 -60 25 -76 0 rrcurveto
          -76 0 -61 -25 -46 -50 -46 -50 -22 -65 0 -83 rrcurveto
          105 hmoveto
          0 74 12 56 25 38 25 38 36 19 48 0 48 0 36 -19 25 -38 25 -38 12 -56 0 -74 0 -74 -12 -57 -25 -38 -25 -38 -36 -19 -48 0 rrcurveto
          -48 0 -36 19 -25 38 -25 38 -12 57 0 74 rrcurveto
          endchar
        </CharString>
        <CharString name="one">
          0 52 690 -20 hstem
          269 98 vstem
          122 563 rmoveto
          147 95 0 -606 -127 0 0 -52 352 0 0 52 -127 0 0 690 -67 0 -178 -115 rlineto
          endchar
        </CharString>
        <CharString name="p">
          -95 -208 52 142 56 425 52 -42 56 hstemhm
          115 90 280 105 hintmask 11011100
          29 -156 rmoveto
          -52 261 52 -85 237 vlineto
          18 -33 22 -24 27 -15 27 -15 34 -8 40 0 64 0 52 25 40 51 40 51 21 66 0 81 0 81 -21 67 -40 50 -40 50 -52 25 -64 0 rrcurveto
          -40 0 -34 -8 -27 -15 -27 -15 -22 -24 -18 -33 rrcurveto
          hintmask 11101100
          81 -176 -52 86 -623 vlineto
          90 390 rmoveto
          51 vlineto
          0 62 12 48 24 33 rrcurveto
          hintmask 11011100
          24 33 34 16 46 0 46 0 34 -19 24 -36 24 -36 12 -54 0 -72 0 -72 -12 -54 -24 -37 -24 -37 -34 -18 -46 0 -46 0 -34 16 -24 33 rrcurveto
          -24 33 -12 48 0 62 rrcurveto
          endchar
        </CharString>
        <CharString name="paragraph">
          677 52 hstemhm
          77 272 -52 52 113 52 hintmask 11010000
          77 523 rmoveto
          0 -60 20 -48 38 -36 rrcurveto
          hintmask 10110000
          38 -36 54 -20 70 -6 rrcurveto
          -413 52 773 113 -773 52 773 58 52 -263 vlineto
          -70 0 -56 -19 -42 -38 rrcurveto
          -42 -38 -22 -49 0 -62 rrcurveto
          endchar
        </CharString>
        <CharString name="parenleft">
          -345 760 -20 hstem
          79 99 vstem
          79 302 rmoveto
          0 -116 21 -96 40 -77 40 -77 60 -57 79 -35 rrcurveto
          48 vlineto
          -50 35 -36 48 -22 63 -22 63 -11 88 0 113 0 114 11 87 22 63 22 63 36 48 50 35 rrcurveto
          48 vlineto
          -79 -35 -60 -57 -40 -77 -40 -77 -21 -96 0 -116 rrcurveto
          endchar
        </CharString>
        <CharString name="parenright">
          -345 760 -20 hstem
          212 99 vstem
          71 -108 rmoveto
          -48 vlineto
          79 35 60 57 40 77 40 77 21 96 0 116 0 116 -21 96 -40 77 -40 77 -60 57 -79 35 rrcurveto
          -48 vlineto
          50 -35 36 -48 22 -63 22 -63 11 -87 0 -114 0 -113 -11 -88 -22 -63 -22 -63 -36 -48 -50 -35 rrcurveto
          endchar
        </CharString>
        <CharString name="period">
          -418 -14 130 hstem
          94 130 vstem
          94 51 rmoveto
          0 -18 7 -15 12 -13 12 -13 15 -6 19 0 18 0 15 6 13 13 13 13 6 15 0 18 0 18 -6 15 -13 13 -13 13 -15 6 -18 0 rrcurveto
          -19 0 -15 -6 -12 -13 -12 -13 -7 -15 0 -18 rrcurveto
          endchar
        </CharString>
        <CharString name="pi">
          -78 0 52 415 52 hstem
          122 90 234 90 vstem
          36 467 rmoveto
          86 -415 -81 -52 249 52 -78 415 234 -415 -78 -52 248 52 -80 hlineto
          415 85 52 -585 vlineto
          endchar
        </CharString>
        <CharString name="plus">
          102 21 -21 274 79 hstem
          380 78 vstem
          106 274 rmoveto
          274 -274 78 274 274 79 -274 274 -78 -274 -274 hlineto
          endchar
        </CharString>
        <CharString name="q">
          -95 -208 52 142 56 425 52 -42 56 hstemhm
          50 105 280 90 hintmask 11101100
          50 260 rmoveto
          0 -81 20 -66 41 -51 41 -51 51 -25 64 0 40 0 34 8 27 15 27 15 22 24 18 33 rrcurveto
          -237 -85 -52 261 52 -86 623 86 52 -176 -81 vlineto
          -18 33 -22 24 -27 15 rrcurveto
          hintmask 11011100
          -27 15 -34 8 -40 0 -64 0 -53 -25 -40 -50 rrcurveto
          -40 -50 -20 -67 0 -81 rrcurveto
          105 hmoveto
          0 72 11 54 24 36 24 36 35 19 46 0 46 0 34 -16 24 -33 24 -33 12 -48 0 -62 rrcurveto
          -51 vlineto
          0 -62 -12 -48 -24 -33 -24 -33 -34 -16 -46 0 -46 0 -35 18 -24 37 -24 37 -11 54 0 72 rrcurveto
          endchar
        </CharString>
        <CharString name="question">
          -199 -14 130 578 48 hstemhm
          68 47 61 130 -95 60 114 103 hintmask 11101100
          68 570 rmoveto
          47 hlineto
          7 40 15 31 24 21 24 21 30 11 37 0 41 0 32 -13 24 -26 24 -26 12 -34 0 -45 0 -51 -15 -42 -29 -33 -29 -33 -43 -23 -58 -14 rrcurveto
          -160 60 124 vlineto
          73 17 54 27 36 38 36 38 18 50 0 61 0 59 -21 47 -42 35 -42 35 -57 17 -72 0 -27 0 -30 -4 -31 -7 -31 -7 -32 -12 -35 -15 rrcurveto
          hintmask 11110100
          108 -646 rmoveto
          0 -18 6 -15 13 -13 13 -13 14 -6 19 0 18 0 15 6 13 13 13 13 6 15 0 18 0 18 -6 15 -13 13 -13 13 -15 6 -18 0 rrcurveto
          -19 0 -14 -6 -13 -13 rrcurveto
          -13 -13 -6 -15 0 -18 rrcurveto
          endchar
        </CharString>
        <CharString name="quotedblleft">
          -224 495 247 hstem
          102 95 98 95 vstem
          102 495 rmoveto
          -102 callsubr
          193 hmoveto
          95 31 hlineto
          0 42 6 34 11 28 11 28 18 24 25 21 rrcurveto
          -38 39 rlineto
          -44 -30 -33 -34 -20 -39 -20 -39 -10 -48 -1 -57 rrcurveto
          endchar
        </CharString>
        <CharString name="quotedblright">
          -224 482 247 hstem
          143 95 98 95 vstem
          71 521 rmoveto
          -101 callsubr
          194 hmoveto
          38 -39 rlineto
          44 30 33 34 20 39 20 39 11 48 0 57 rrcurveto
          -95 -31 hlineto
          0 -42 -6 -34 -11 -28 -11 -28 -18 -24 -25 -21 rrcurveto
          endchar
        </CharString>
        <CharString name="quoteleft">
          -418 495 247 hstem
          102 95 vstem
          102 495 rmoveto
          -102 callsubr
          endchar
        </CharString>
        <CharString name="quoteright">
          -418 482 247 hstem
          143 95 vstem
          71 521 rmoveto
          -101 callsubr
          endchar
        </CharString>
        <CharString name="quotesingle">
          -461 458 271 hstem
          98 78 vstem
          98 458 rmoveto
          78 271 -78 hlineto
          endchar
        </CharString>
        <CharString name="r">
          -257 0 52 415 66 -65 51 hstemhm
          122 90 214 52 hintmask 10111000
          36 468 rmoveto
          86 -416 -81 -52 275 52 -104 237 hlineto
          0 57 11 44 24 31 rrcurveto
          hintmask 11011000
          24 31 34 15 44 0 24 0 19 -6 13 -13 13 -13 6 -19 2 -26 rrcurveto
          52 130 hlineto
          -18 4 -17 4 -16 2 -16 2 -15 1 -15 0 -40 0 -33 -9 -28 -17 -28 -17 -22 -27 -18 -36 rrcurveto
          hintmask 10111000
          92 -176 vlineto
          endchar
        </CharString>
        <CharString name="s">
          -222 -14 48 -5 121 228 113 -6 48 hstemhm
          56 52 -51 85 228 92 -80 52 hintmask 01001010
          56 29 rmoveto
          32 -14 32 -11 32 -7 rrcurveto
          hintmask 10010110
          32 -7 32 -4 34 0 66 0 52 14 38 28 38 28 18 39 0 49 0 36 -11 30 -22 23 -22 23 -35 19 -49 15 rrcurveto
          -71 22 rlineto
          -44 14 -29 13 -15 13 -15 13 -7 18 0 22 0 27 10 20 19 13 19 13 29 7 38 0 38 0 30 -9 22 -19 rrcurveto
          hintmask 00100101
          22 -19 12 -26 1 -34 rrcurveto
          52 113 hlineto
          -32 14 -32 10 -30 7 rrcurveto
          hintmask 10010110
          -30 7 -29 4 -27 0 -62 0 -48 -13 -35 -27 -35 -27 -17 -37 0 -48 0 -33 10 -28 20 -21 20 -21 32 -19 45 -14 rrcurveto
          65 -22 rlineto
          50 -16 33 -15 15 -14 15 -14 8 -18 0 -23 0 -29 -11 -22 -21 -15 -21 -15 -31 -8 -40 0 -45 0 -34 10 -23 19 rrcurveto
          hintmask 01001010
          -23 19 -12 29 -1 39 rrcurveto
          -52 hlineto
          endchar
        </CharString>
        <CharString name="semicolon">
          -399 304 130 hstemhm
          106 130 -111 96 hintmask 10100000
          36 -97 rmoveto
          39 -39 rlineto
          48 29 35 35 24 40 24 40 12 47 3 56 rrcurveto
          -96 -18 hlineto
          0 -43 -7 -38 -14 -30 rrcurveto
          -14 -30 -23 -27 -31 -22 rrcurveto
          hintmask 11000000
          70 466 rmoveto
          hintmask 10100000
          0 -18 6 -15 13 -13 13 -13 15 -6 18 0 18 0 15 6 13 13 rrcurveto
          hintmask 11000000
          13 13 6 15 0 18 0 18 -6 15 -13 13 -13 13 -15 6 -18 0 rrcurveto
          hintmask 10100000
          -18 0 -15 -6 -13 -13 rrcurveto
          -13 -13 -6 -15 0 -18 rrcurveto
          endchar
        </CharString>
        <CharString name="seven">
          21 -21 649 80 hstem
          84 57 vstem
          84 559 rmoveto
          57 90 337 hlineto
          -272 -649 73 0 285 679 0 50 -480 0 rlineto
          endchar
        </CharString>
        <CharString name="sfthyphen">
          -398 230 76 hstem
          44 250 vstem
          44 230 rmoveto
          -107 callsubr
          endchar
        </CharString>
        <CharString name="six">
          -14 48 392 48 119 120 -19 48 hstemhm
          67 101 302 103 -93 55 hintmask 11011100
          67 341 rmoveto
          0 -114 22 -88 44 -61 44 -61 64 -31 82 0 76 0 61 22 45 44 45 44 23 60 0 74 0 76 -21 59 -42 44 -42 44 -57 21 -73 0 rrcurveto
          -35 0 -32 -6 -28 -12 -28 -12 -25 -19 -22 -24 1 99 16 74 31 48 31 48 47 24 63 0 36 0 28 -9 21 -17 rrcurveto
          hintmask 11101010
          21 -17 13 -25 4 -33 rrcurveto
          55 120 hlineto
          -30 10 -29 7 -28 5 rrcurveto
          hintmask 11011100
          -28 5 -27 2 -26 0 -95 0 -74 -35 -52 -70 rrcurveto
          -52 -70 -27 -98 0 -128 rrcurveto
          117 -105 rmoveto
          0 62 13 46 24 33 24 33 35 16 47 0 46 0 35 -17 25 -34 25 -34 12 -48 0 -63 0 -63 -12 -48 -25 -34 -25 -34 -35 -17 -46 0 rrcurveto
          -46 0 -35 17 -25 35 -25 35 -12 50 0 65 rrcurveto
          endchar
        </CharString>
        <CharString name="slash">
          -399 729 -20 hstem
          -93 vmoveto
          78 0 259 822 -78 0 rlineto
          endchar
        </CharString>
        <CharString name="space">
          -418 endchar
        </CharString>
        <CharString name="t">
          -334 -14 48 433 52 hstem
          108 90 128 68 vstem
          29 467 rmoveto
          79 -330 hlineto
          0 -55 11 -39 21 -23 21 -23 37 -11 52 0 47 0 35 11 23 22 23 22 13 34 3 47 rrcurveto
          -68 hlineto
          -1 -31 -5 -22 -11 -14 -11 -14 -17 -7 -23 0 -23 0 -16 7 -8 12 -8 12 -5 28 0 44 rrcurveto
          330 169 52 -169 161 -90 -161 -79 vlineto
          endchar
        </CharString>
        <CharString name="three">
          -14 48 336 50 150 128 -4 48 hstemhm
          76 55 -34 55 281 99 -73 103 hintmask 11011001
          76 35 rmoveto
          36 -17 36 -12 36 -8 36 -8 38 -4 38 0 86 0 65 18 46 36 46 36 23 53 0 68 0 56 -17 45 -33 35 -33 35 -46 22 -60 8 rrcurveto
          51 10 39 21 28 29 rrcurveto
          hintmask 11010110
          28 29 13 37 0 44 0 55 -20 42 -40 31 -40 31 -56 15 -71 0 -31 0 -32 -4 -35 -7 rrcurveto
          hintmask 11100110
          -35 -7 -37 -12 -38 -14 rrcurveto
          -128 55 vlineto
          4 41 15 31 24 21 rrcurveto
          hintmask 11010010
          24 21 34 10 44 0 44 0 34 -11 23 -23 23 -23 12 -32 0 -43 0 -48 -15 -35 -28 -24 -28 -24 -43 -11 -57 0 rrcurveto
          -24 -50 46 hlineto
          57 0 44 -15 30 -29 rrcurveto
          hintmask 11011001
          30 -29 14 -44 0 -57 0 -50 -14 -40 -29 -29 -29 -29 -39 -14 -50 0 -51 0 -41 12 -28 24 -28 24 -16 36 -3 47 rrcurveto
          -55 hlineto
          endchar
        </CharString>
        <CharString name="two">
          0 80 614 48 hstemhm
          73 55 297 103 -47 57 hintmask 11101000
          68 hmoveto
          470 170 -57 -90 -304 hlineto
          184 184 rlineto
          4 4 5 6 8 7 rrcurveto
          hintmask 11110000
          100 99 50 86 0 71 0 63 -22 50 -44 37 -44 37 -60 18 -76 0 -34 0 -35 -4 -35 -10 -35 -10 -35 -14 -35 -19 rrcurveto
          -130 55 vlineto
          5 46 15 35 25 23 25 23 36 12 47 0 45 0 34 -14 26 -28 26 -28 13 -38 0 -49 0 -45 -10 -43 -21 -41 -21 -41 -35 -44 -49 -49 rrcurveto
          -221 -221 rlineto
          endchar
        </CharString>
        <CharString name="u">
          -91 -14 66 -52 52 415 52 hstemhm
          108 90 234 90 hintmask 10111000
          27 467 rmoveto
          81 -278 hlineto
          0 -70 14 -51 27 -33 27 -33 42 -16 58 0 35 0 31 9 26 18 26 18 21 26 17 35 rrcurveto
          hintmask 01111000
          -92 175 52 -85 467 -168 -52 78 -236 vlineto
          0 -58 -11 -44 -22 -31 rrcurveto
          hintmask 10111000
          -22 -31 -31 -15 -42 0 -40 0 -28 12 -15 23 -15 23 -8 44 0 63 rrcurveto
          302 -171 vlineto
          endchar
        </CharString>
        <CharString name="underscore">
          -235 -236 39 hstem
          -197 vmoveto
          -39 500 39 vlineto
          endchar
        </CharString>
        <CharString name="uni200A">
          -636 endchar
        </CharString>
        <CharString name="uni200C">
          -735 endchar
        </CharString>
        <CharString name="uni200D">
          -735 endchar
        </CharString>
        <CharString name="uni2010">
          -398 230 76 hstem
          44 250 vstem
          44 230 rmoveto
          -107 callsubr
          endchar
        </CharString>
        <CharString name="uni2011">
          -398 230 76 hstem
          44 250 vstem
          44 230 rmoveto
          -107 callsubr
          endchar
        </CharString>
        <CharString name="uni2023">
          -146 150 329 vstem
          150 188 rmoveto
          329 184 -329 183 rlineto
          endchar
        </CharString>
        <CharString name="uniFB03">
          292 0 52 415 52 109 106 -97 99 -24 48 hstemhm
          121 90 171 47 54 90 257 90 -82 46 hintmask 1100111110000000
          35 hmoveto
          291 52 -115 415 272 -415 -86 -52 261 52 -85 415 257 -415 -86 hlineto
          -52 261 52 -85 467 -347 49 vlineto
          0 50 11 36 23 23 23 23 37 12 50 0 40 0 30 -7 20 -14 rrcurveto
          hintmask 1110011101000000
          -99 callsubr
          hintmask 1100111110000000
          -30 4 -29 3 -28 0 -75 0 -56 -16 -38 -33 -38 -33 -19 -48 0 -64 rrcurveto
          -47 -272 67 vlineto
          0 47 6 33 14 18 14 18 23 10 34 0 26 0 19 -6 14 -13 rrcurveto
          hintmask 1101011110000000
          -104 callsubr
          hintmask 1100111110000000
          -103 callsubr
          endchar
        </CharString>
        <CharString name="uniFB04">
          295 0 52 415 52 118 99 -24 48 hstemhm
          120 90 171 47 53 90 250 90 hintmask 11011111
          34 hmoveto
          291 52 -115 415 271 -415 -86 -52 261 52 -85 415 144 52 -144 hlineto
          49 vlineto
          0 51 11 36 22 21 22 21 37 11 53 0 rrcurveto
          105 -656 -86 -52 261 52 -85 708 -194 hlineto
          -79 0 -60 -16 -39 -32 -39 -32 -19 -49 0 -65 rrcurveto
          -47 -271 67 vlineto
          0 47 6 33 14 18 14 18 23 10 34 0 26 0 19 -6 14 -13 rrcurveto
          hintmask 11101111
          -104 callsubr
          hintmask 11011111
          -103 callsubr
          endchar
        </CharString>
        <CharString name="uniFB05">
          36 -15 49 -34 52 414 53 193 48 hstemhm
          125 89 233 90 128 68 hintmask 01111110
          39 hmoveto
          260 52 -85 467 hlineto
          49 vlineto
          0 50 12 36 23 23 23 23 36 12 50 0 37 0 30 -8 22 -15 rrcurveto
          -170 -79 -53 79 -329 vlineto
          0 -55 11 -39 21 -23 rrcurveto
          hintmask 10111110
          21 -23 37 -12 52 0 47 0 35 11 23 22 23 22 13 35 3 47 rrcurveto
          -68 hlineto
          -1 -31 -5 -23 -11 -14 -11 -14 -17 -6 -23 0 rrcurveto
          hintmask 01111110
          -23 0 -16 6 -8 12 -8 12 -5 29 0 44 rrcurveto
          329 169 53 -169 vlineto
          1 187 rlineto
          -22 25 -33 15 -45 7 -30 4 -29 3 -28 0 -75 0 -56 -16 -38 -33 -38 -33 -19 -48 0 -64 rrcurveto
          -47 -86 -52 86 -415 -86 vlineto
          endchar
        </CharString>
        <CharString name="v">
          -171 21 -21 467 52 hstem
          -3 467 rmoveto
          59 0 191 -467 66 0 191 467 58 0 0 52 -195 0 0 -52 78 0 -146 -357 -146 357 83 0 0 52 -239 0 rlineto
          endchar
        </CharString>
        <CharString name="w">
          120 21 -21 467 52 hstem
          16 467 rmoveto
          58 0 154 -467 72 0 128 388 128 -388 75 0 154 467 58 0 0 52 -188 0 0 -52 75 0 -117 -353 -133 405 -63 0 rlineto
          -134 -405 -116 353 84 0 0 52 -235 0 rlineto
          endchar
        </CharString>
        <CharString name="x">
          -172 0 52 415 52 hstem
          12 467 rmoveto
          64 0 158 -218 -143 -197 -69 0 0 -52 197 0 0 52 -67 0 113 155 113 -155 -66 0 0 -52 240 0 0 52 -68 0 rlineto
          -162 223 139 192 69 0 0 52 -200 0 0 -52 70 0 -109 -150 -109 150 62 0 0 52 -232 0 rlineto
          endchar
        </CharString>
        <CharString name="y">
          -171 -222 52 -37 99 575 52 hstemhm
          32 46 hintmask 10110000
          -3 467 rmoveto
          59 0 194 -476 -34 -86 rlineto
          -12 -30 -12 -20 -11 -10 -11 -10 -14 -5 -18 0 -20 0 -14 4 -9 10 rrcurveto
          hintmask 01110000
          -9 10 -6 16 -2 22 rrcurveto
          -46 -99 hlineto
          16 -5 17 -3 16 -3 rrcurveto
          hintmask 10110000
          16 -3 16 -1 15 0 36 0 28 7 20 15 20 15 18 28 16 40 rrcurveto
          238 584 58 0 0 52 -195 0 0 -52 78 0 -146 -357 -146 357 83 0 0 52 -239 0 rlineto
          endchar
        </CharString>
        <CharString name="z">
          -209 0 52 415 52 hstem
          56 52 330 52 vstem
          40 hmoveto
          450 146 -52 -94 -282 hlineto
          325 425 0 42 -425 0 0 -142 52 0 0 90 257 0 -325 -425 rlineto
          endchar
        </CharString>
        <CharString name="zero">
          -14 48 660 48 hstem
          66 103 298 103 vstem
          66 364 rmoveto
          0 -119 23 -94 44 -66 44 -66 62 -33 79 0 79 0 62 33 44 66 44 66 23 94 0 119 0 119 -23 94 -44 66 -44 66 -62 33 -79 0 rrcurveto
          -79 0 -62 -33 -44 -66 -44 -66 -23 -94 0 -119 rrcurveto
          103 hmoveto
          0 111 12 82 25 55 25 55 37 27 50 0 50 0 37 -27 25 -55 25 -55 12 -82 0 -111 0 -110 -12 -83 -25 -55 -25 -55 -37 -27 -50 0 rrcurveto
          -50 0 -37 27 -25 55 -25 55 -12 83 0 110 rrcurveto
          endchar
        </CharString>
</ttFont>
